<?xml version="1.0" ?>
<svg height="224" version="1.1" width="224" xmlns="http://www.w3.org/2000/svg">
  <defs/>
  <g>
    <path d="M 159.67843627929688 98.20647430419922 C 131.09011840820312 84.10641479492188 133.5253143310547 60.28102493286133 103.75708770751953 54.3945198059082" fill="none" stroke="rgb(0, 0, 0)" stroke-linecap="round" stroke-linejoin="round" stroke-opacity="1.0" stroke-width="3.0"/>
    <path d="M 85.22118377685547 115.00377655029297 C 127.47760009765625 119.14732360839844 99.5796890258789 119.84689331054688 100.56573486328125 116.2403335571289" fill="none" stroke="rgb(0, 0, 0)" stroke-linecap="round" stroke-linejoin="round" stroke-opacity="1.0" stroke-width="3.0"/>
    <path d="M 119.69559478759766 61.5972900390625 C 166.92471313476562 142.83262634277344 190.89500427246094 60.29372787475586 185.60899353027344 84.49681854248047" fill="none" stroke="rgb(0, 0, 0)" stroke-linecap="round" stroke-linejoin="round" stroke-opacity="1.0" stroke-width="3.0"/>
    <path d="M 77.71646881103516 38.32442092895508 C 59.1585807800293 37.396881103515625 47.292972564697266 54.746185302734375 25.16099739074707 71.8105239868164" fill="none" stroke="rgb(0, 0, 0)" stroke-linecap="round" stroke-linejoin="round" stroke-opacity="1.0" stroke-width="3.0"/>
    <path d="M 108.81163787841797 56.18418502807617 C 93.61014556884766 52.52483367919922 99.92283630371094 43.03059387207031 75.67589569091797 37.48905563354492" fill="none" stroke="rgb(0, 0, 0)" stroke-linecap="round" stroke-linejoin="round" stroke-opacity="1.0" stroke-width="3.0"/>
    <path d="M 38.80718231201172 77.01786041259766 C 43.99188995361328 88.81639862060547 46.0328483581543 97.77803802490234 40.64175796508789 81.5503921508789" fill="none" stroke="rgb(0, 0, 0)" stroke-linecap="round" stroke-linejoin="round" stroke-opacity="1.0" stroke-width="3.0"/>
    <path d="M 186.8148651123047 59.161190032958984 C 246.39695739746094 45.01838684082031 177.7368621826172 51.155296325683594 189.84849548339844 76.14327239990234" fill="none" stroke="rgb(0, 0, 0)" stroke-linecap="round" stroke-linejoin="round" stroke-opacity="1.0" stroke-width="3.0"/>
    <path d="M 95.64539337158203 189.3474884033203 C 117.59810638427734 73.46847534179688 103.67063903808594 128.69168090820312 101.39485168457031 92.47538757324219" fill="none" stroke="rgb(0, 0, 0)" stroke-linecap="round" stroke-linejoin="round" stroke-opacity="1.0" stroke-width="3.0"/>
    <path d="M 49.898773193359375 96.30182647705078 C 18.288516998291016 180.6051483154297 25.653146743774414 142.96913146972656 43.69816589355469 198.91009521484375" fill="none" stroke="rgb(0, 0, 0)" stroke-linecap="round" stroke-linejoin="round" stroke-opacity="1.0" stroke-width="3.0"/>
    <path d="M 117.70549011230469 61.26955795288086 C 103.81212615966797 52.932193756103516 98.54004669189453 53.98231887817383 109.57151794433594 57.160911560058594" fill="none" stroke="rgb(0, 0, 0)" stroke-linecap="round" stroke-linejoin="round" stroke-opacity="1.0" stroke-width="3.0"/>
    <path d="M 42.970367431640625 88.19470977783203 C 61.3658332824707 106.71686553955078 59.25873565673828 121.92542266845703 94.01671600341797 112.44513702392578" fill="none" stroke="rgb(0, 0, 0)" stroke-linecap="round" stroke-linejoin="round" stroke-opacity="1.0" stroke-width="3.0"/>
    <path d="M 17.583938598632812 153.4926300048828 C 37.20601272583008 109.52482604980469 -14.632500648498535 95.34868621826172 42.13159942626953 58.65357208251953" fill="none" stroke="rgb(0, 0, 0)" stroke-linecap="round" stroke-linejoin="round" stroke-opacity="1.0" stroke-width="3.0"/>
    <path d="M 165.72950744628906 93.26374816894531 C 181.2815399169922 72.94579315185547 168.00601196289062 14.095213890075684 192.73574829101562 53.573402404785156" fill="none" stroke="rgb(0, 0, 0)" stroke-linecap="round" stroke-linejoin="round" stroke-opacity="1.0" stroke-width="3.0"/>
    <path d="M 126.3150863647461 92.99278259277344 C 136.6026153564453 103.11605072021484 80.32430267333984 204.5088653564453 110.58476257324219 191.18295288085938" fill="none" stroke="rgb(0, 0, 0)" stroke-linecap="round" stroke-linejoin="round" stroke-opacity="1.0" stroke-width="3.0"/>
    <path d="M 210.2598114013672 57.997703552246094 C 156.08767700195312 64.71266174316406 211.5819091796875 35.34343338012695 181.9702606201172 48.512210845947266" fill="none" stroke="rgb(0, 0, 0)" stroke-linecap="round" stroke-linejoin="round" stroke-opacity="1.0" stroke-width="3.0"/>
    <path d="M 180.7855682373047 43.64682388305664 C 238.3898468017578 53.24666213989258 185.8749542236328 34.41189956665039 213.8607635498047 56.003570556640625" fill="none" stroke="rgb(0, 0, 0)" stroke-linecap="round" stroke-linejoin="round" stroke-opacity="1.0" stroke-width="3.0"/>
  </g>
</svg>
